<svg width="375" height="44" viewBox="0 0 375 44" fill="none" xmlns="http://www.w3.org/2000/svg">
<rect opacity="0.35" x="336.5" y="17.8333" width="21" height="10.3333" rx="2.16667" stroke="white"/>
<path opacity="0.4" d="M359 21V25C359.805 24.6612 360.328 23.8731 360.328 23C360.328 22.1269 359.805 21.3388 359 21Z" fill="white"/>
<rect x="338" y="19.3333" width="18" height="7.33333" rx="1.33333" fill="white"/>
<path fill-rule="evenodd" clip-rule="evenodd" d="M323.33 19.608C325.546 19.6081 327.677 20.4596 329.283 21.9863C329.404 22.1042 329.598 22.1027 329.717 21.983L330.873 20.8163C330.933 20.7556 330.967 20.6734 330.966 20.5878C330.966 20.5022 330.931 20.4204 330.87 20.3603C326.655 16.3208 320.005 16.3208 315.79 20.3603C315.729 20.4203 315.694 20.5021 315.694 20.5877C315.693 20.6733 315.727 20.7556 315.787 20.8163L316.943 21.983C317.062 22.1029 317.256 22.1044 317.377 21.9863C318.983 20.4595 321.114 19.608 323.33 19.608ZM323.33 23.4037C324.548 23.4036 325.722 23.8561 326.624 24.6733C326.746 24.7893 326.939 24.7868 327.058 24.6677L328.212 23.501C328.273 23.4398 328.307 23.3568 328.306 23.2705C328.305 23.1843 328.27 23.102 328.208 23.042C325.459 20.4856 321.204 20.4856 318.455 23.042C318.393 23.102 318.358 23.1843 318.357 23.2706C318.356 23.3569 318.39 23.4399 318.451 23.501L319.605 24.6677C319.724 24.7868 319.917 24.7893 320.039 24.6733C320.941 23.8567 322.114 23.4042 323.33 23.4037ZM325.643 25.9575C325.645 26.044 325.611 26.1274 325.549 26.188L323.552 28.2037C323.493 28.2629 323.414 28.2963 323.33 28.2963C323.247 28.2963 323.167 28.2629 323.109 28.2037L321.111 26.188C321.049 26.1274 321.015 26.0439 321.017 25.9574C321.019 25.8709 321.056 25.789 321.121 25.731C322.396 24.6521 324.264 24.6521 325.54 25.731C325.604 25.7891 325.642 25.871 325.643 25.9575Z" fill="white"/>
<path fill-rule="evenodd" clip-rule="evenodd" d="M309.667 17.6667H308.667C308.114 17.6667 307.667 18.1144 307.667 18.6667V27.3333C307.667 27.8856 308.114 28.3333 308.667 28.3333H309.667C310.219 28.3333 310.667 27.8856 310.667 27.3333V18.6667C310.667 18.1144 310.219 17.6667 309.667 17.6667ZM304 20H305C305.552 20 306 20.4477 306 21V27.3333C306 27.8856 305.552 28.3333 305 28.3333H304C303.448 28.3333 303 27.8856 303 27.3333V21C303 20.4477 303.448 20 304 20ZM300.333 22.3333H299.333C298.781 22.3333 298.333 22.781 298.333 23.3333V27.3333C298.333 27.8856 298.781 28.3333 299.333 28.3333H300.333C300.886 28.3333 301.333 27.8856 301.333 27.3333V23.3333C301.333 22.781 300.886 22.3333 300.333 22.3333ZM295.667 24.3333H294.667C294.114 24.3333 293.667 24.781 293.667 25.3333V27.3333C293.667 27.8856 294.114 28.3333 294.667 28.3333H295.667C296.219 28.3333 296.667 27.8856 296.667 27.3333V25.3333C296.667 24.781 296.219 24.3333 295.667 24.3333Z" fill="white"/>
<path d="M37.2841 28.5863C39.9721 28.5863 41.5688 26.4843 41.5688 22.9247C41.5688 19.4311 39.8695 17.4975 37.3427 17.4975C35.0429 17.4975 33.4169 19.0429 33.4169 21.2108C33.4169 23.2397 34.8817 24.7191 36.8959 24.7191C38.1337 24.7191 39.1371 24.1479 39.6352 23.1444H39.7597C39.7377 25.5907 38.8515 27.0043 37.3061 27.0043C36.3979 27.0043 35.6728 26.5136 35.4457 25.7226H33.5634C33.871 27.4511 35.3505 28.5863 37.2841 28.5863ZM37.35 23.225C36.1195 23.225 35.2699 22.3754 35.2699 21.1523C35.2699 19.9731 36.1635 19.0722 37.3573 19.0722C38.5512 19.0722 39.4447 19.9877 39.4447 21.1889C39.4447 22.3681 38.5731 23.225 37.35 23.225ZM44.5866 26.8725C45.2824 26.8725 45.7585 26.3744 45.7585 25.7152C45.7585 25.0487 45.2824 24.558 44.5866 24.558C43.8981 24.558 43.4147 25.0487 43.4147 25.7152C43.4147 26.3744 43.8981 26.8725 44.5866 26.8725ZM44.5866 21.5258C45.2824 21.5258 45.7585 21.0351 45.7585 20.3759C45.7585 19.7094 45.2824 19.2187 44.5866 19.2187C43.8981 19.2187 43.4147 19.7094 43.4147 20.3759C43.4147 21.0351 43.8981 21.5258 44.5866 21.5258ZM52.7607 28.33H54.5698V26.3158H55.998V24.7191H54.5698V17.7611H51.9038C50.4683 19.9438 48.9668 22.3534 47.5972 24.7411V26.3158H52.7607V28.33ZM49.3477 24.6606C50.3804 22.8808 51.6035 20.9398 52.6875 19.2992H52.79V24.7631H49.3477V24.6606ZM60.0267 28.33H61.9163V17.7611H60.034L57.2728 19.6947V21.5111L59.9021 19.6654H60.0267V28.33Z" fill="white"/>
</svg>
